# xmcd
# 
# Track frame offsets:
#     183
#     18535
#     35913
# 
# Disc length: 733
# 
# Revision: 3
# Processed by: cddbd v1.5.2PL0 Copyright (c) Steve Scherf et al.
# Submitted via: fre:ac v1.0.31
# 
DISCID=2202db03
DTITLE=Blackgirl - 90's Girl
DYEAR=1994
DGENRE=Rhythmic Soul
TTITLE0=90's Girl [Encore Alt. Remix]
TTITLE1=Krazy [Original Radio Edit]
TTITLE2=Krazy [Hip Hop Mix]
EXTD=
EXTT0=
EXTT1=
EXTT2=
PLAYORDER=
